<svg t="1648896135058" class="icon" viewBox="0 0 1024 1024" version="1.1" xmlns="http://www.w3.org/2000/svg" p-id="7830" width="64" height="64"><path d="M958.72 925.44c-15.36-181.76-139.52-332.16-307.84-386.56C721.28 493.44 768 414.72 768 324.48c0-141.44-115.2-256-256.64-256-141.44 0-256.64 114.56-256.64 256 0 90.24 46.72 168.96 117.12 214.4C204.16 593.28 79.36 743.68 64 925.44c0 3.2-0.64 5.76 0 10.24 1.28 16 15.36 28.8 31.36 28.8l831.36 0c16 0 30.08-12.8 31.36-28.8C959.36 931.2 958.72 928.64 958.72 925.44z" p-id="7831" fill="#ffffff"></path></svg>
